<svg width="16" height="16" viewBox="0 0 16 16" fill="none" xmlns="http://www.w3.org/2000/svg">
<path d="M4.9541 12.375H5.39869H5.44824H5.71475L5.80239 12.1233L8.52553 4.30301L8.69905 3.80469H8.17139H6.37744H6.09783L6.01803 4.07268L4.60561 8.81645L3.19738 4.07296L3.11774 3.80469H2.83789H1.05469H0.528049L0.700318 4.30235L3.40735 12.1227L3.4947 12.375H3.76172H3.82489H4.2666H4.9541ZM12.5541 9.69954L12.5564 9.70632L12.559 9.71301C12.5826 9.77406 12.5981 9.85239 12.5981 9.95361C12.5981 10.0617 12.5717 10.1482 12.5232 10.2239L12.5231 10.2239L12.5195 10.2297C12.4819 10.2908 12.4147 10.3547 12.2875 10.4096L12.2875 10.4096L12.285 10.4107C12.1694 10.4615 11.9964 10.4971 11.7485 10.4971C11.5449 10.4971 11.3637 10.4764 11.2033 10.4378C11.0575 10.402 10.9407 10.3469 10.8463 10.2772C10.7647 10.2144 10.6974 10.1302 10.6461 10.0155C10.5981 9.90812 10.5659 9.75766 10.5659 9.55078V9.17578H10.1909H8.57422H8.19922V9.55078C8.19922 10.0437 8.30177 10.4913 8.52189 10.8797C8.7326 11.2516 9.01529 11.5593 9.36725 11.7995L9.36894 11.8006C9.71217 12.0321 10.0915 12.2044 10.5047 12.3185L10.5079 12.3194C10.9152 12.428 11.329 12.4824 11.7485 12.4824C12.2059 12.4824 12.629 12.431 13.0146 12.3237C13.3996 12.2165 13.7418 12.0567 14.0347 11.8391C14.3309 11.619 14.5621 11.3461 14.722 11.0219C14.8833 10.6951 14.9595 10.3327 14.9595 9.94287C14.9595 9.57724 14.8964 9.23667 14.7616 8.92807C14.6283 8.62272 14.4316 8.35313 14.1774 8.11975C13.9279 7.89069 13.6248 7.69111 13.2744 7.51774C12.9298 7.34552 12.5358 7.19342 12.0948 7.05992C11.8502 6.9841 11.6392 6.90788 11.4604 6.83175C11.2845 6.75682 11.1461 6.68106 11.0403 6.60675C10.94 6.53627 10.8791 6.47126 10.8433 6.41609C10.8172 6.37123 10.8022 6.31965 10.8022 6.25293C10.8022 6.14796 10.8288 6.06345 10.8789 5.98829L10.8789 5.9883L10.8813 5.98464C10.9277 5.9133 11.0049 5.8435 11.1375 5.78485L11.1375 5.78489L11.143 5.78238C11.2655 5.72584 11.4405 5.68799 11.6841 5.68799C11.9336 5.68799 12.1084 5.73145 12.2286 5.79495L12.2286 5.79496L12.2312 5.79629C12.3638 5.86503 12.4483 5.95103 12.5022 6.05272L12.5021 6.05277L12.5067 6.0608C12.567 6.16803 12.6035 6.30322 12.6035 6.47852V6.85352H12.9785H14.5791H14.9541V6.47852C14.9541 5.94534 14.8156 5.45893 14.5324 5.03157C14.2551 4.60756 13.8674 4.2801 13.3834 4.04616C12.8933 3.80929 12.3324 3.69727 11.7109 3.69727C11.2578 3.69727 10.8332 3.75296 10.44 3.86815L10.439 3.86844C10.0516 3.98307 9.70631 4.14986 9.40862 4.37285C9.10901 4.59369 8.87099 4.86433 8.70033 5.184C8.52547 5.50791 8.44092 5.86507 8.44092 6.24756C8.44092 6.63552 8.51967 6.99362 8.6894 7.31074L8.68938 7.31075L8.69134 7.31433C8.85598 7.61407 9.07844 7.87503 9.35403 8.09715L9.354 8.09719L9.35883 8.10095C9.62816 8.31087 9.93333 8.4921 10.2721 8.64608L10.2735 8.64673C10.6055 8.79594 10.955 8.9297 11.3217 9.04823L11.3217 9.04824L11.3245 9.04912C11.6346 9.1467 11.8775 9.23782 12.0579 9.32157C12.2408 9.40647 12.3622 9.48388 12.4368 9.54889L12.4368 9.54894L12.4421 9.55344C12.5112 9.61136 12.5408 9.661 12.5541 9.69954Z" fill="#1A3A5A" stroke="white" stroke-width="0.75"/>
</svg>
