<svg width="14" height="14" viewBox="0 0 18 18" fill="none" xmlns="http://www.w3.org/2000/svg">
<path d="M9.0013 0.666504C13.6038 0.666504 17.3346 4.39817 17.3346 8.99984C17.3346 13.6015 13.6038 17.3332 9.0013 17.3332C4.3988 17.3332 0.667969 13.6015 0.667969 8.99984C0.667969 4.39817 4.3988 0.666504 9.0013 0.666504ZM9.00297 11.5032C8.89148 11.4996 8.78042 11.5186 8.67639 11.5588C8.57235 11.599 8.47746 11.6597 8.39735 11.7373C8.31724 11.815 8.25355 11.9079 8.21005 12.0106C8.16655 12.1133 8.14413 12.2237 8.14413 12.3353C8.14413 12.4468 8.16655 12.5572 8.21005 12.6599C8.25355 12.7626 8.31724 12.8555 8.39735 12.9332C8.47746 13.0108 8.57235 13.0715 8.67639 13.1117C8.78042 13.152 8.89148 13.1709 9.00297 13.1673C9.21909 13.1605 9.42408 13.0698 9.57454 12.9145C9.725 12.7592 9.80913 12.5515 9.80913 12.3353C9.80913 12.119 9.725 11.9113 9.57454 11.756C9.42408 11.6007 9.21909 11.51 9.00297 11.5032ZM9.0013 4.83317C8.79706 4.83322 8.59996 4.90828 8.44741 5.04408C8.29486 5.17988 8.19749 5.36698 8.1738 5.56984L8.16797 5.6665L8.16964 9.834L8.17547 9.9315C8.19956 10.134 8.2971 10.3207 8.44961 10.4562C8.60211 10.5916 8.799 10.6664 9.00297 10.6664C9.20694 10.6664 9.40382 10.5916 9.55633 10.4562C9.70884 10.3207 9.80638 10.134 9.83047 9.9315L9.8363 9.834L9.83464 5.6665L9.8288 5.569C9.80492 5.36629 9.70748 5.1794 9.55495 5.04377C9.40242 4.90813 9.20541 4.8332 9.0013 4.83317Z" fill="#E63761"/>
</svg>
